<svg width="21" height="21" viewBox="0 0 21 21" fill="none" xmlns="http://www.w3.org/2000/svg">
<g id="instagram" clip-path="url(#clip0_252_2697)">
<path id="Vector" d="M19.25 6.125C19.25 3.70875 17.2912 1.75 14.875 1.75H10.5H6.125C3.70875 1.75 1.75 3.70875 1.75 6.125V14.875C1.75 17.2912 3.70875 19.25 6.125 19.25H14.875C17.2912 19.25 19.25 17.2912 19.25 14.875V6.125Z" stroke="white" stroke-opacity="0.9" stroke-width="2" stroke-linecap="round" stroke-linejoin="round"/>
<path id="Vector_2" d="M13.6438 12.0729C13.9829 11.4195 14.1072 10.6758 13.9993 9.94755C13.8891 9.20474 13.543 8.51705 13.012 7.98607C12.481 7.45508 11.7933 7.10895 11.0505 6.9988C10.3223 6.89081 9.57857 7.0152 8.92512 7.35426C8.27167 7.69332 7.74177 8.2298 7.41079 8.88738C7.07981 9.54496 6.96461 10.2902 7.08156 11.017C7.19852 11.7438 7.54168 12.4153 8.06224 12.9358C8.5828 13.4564 9.25424 13.7995 9.98107 13.9165C10.7079 14.0334 11.4531 13.9182 12.1107 13.5873C12.7683 13.2563 13.3047 12.7264 13.6438 12.0729Z" stroke="white" stroke-opacity="0.9" stroke-width="2" stroke-linecap="round" stroke-linejoin="round"/>
<path id="Vector_3" d="M15.3125 5.6875H15.3212" stroke="white" stroke-opacity="0.9" stroke-width="2" stroke-linecap="round" stroke-linejoin="round"/>
</g>
<defs>
<clipPath id="clip0_252_2697">
<rect width="21" height="21" fill="white"/>
</clipPath>
</defs>
</svg>
