<svg width="21" height="21" viewBox="0 0 21 21" fill="none" xmlns="http://www.w3.org/2000/svg">
<g id="twitter" clip-path="url(#clip0_252_2699)">
<path id="Vector" d="M17.3775 3.96474C18.3593 3.66908 19.2871 3.21703 20.125 2.62599C19.8282 3.84461 19.198 4.95654 18.305 5.83724C18.3508 6.07663 18.3742 6.31976 18.375 6.56349C18.375 16.626 8.75 21.001 0.875 16.626C3.05126 16.7125 5.19796 16.0992 7 14.876C-0.875 11.376 2.625 3.50099 2.625 3.50099C3.50903 4.75979 4.69065 5.78043 6.06463 6.472C7.43861 7.16357 8.9623 7.50461 10.5 7.46474V6.58974C10.4892 5.78678 10.7253 4.99989 11.1764 4.33549C11.6274 3.67109 12.2716 3.16123 13.0218 2.87488C13.7721 2.58853 14.5921 2.5395 15.3712 2.73442C16.1502 2.92934 16.8505 3.35881 17.3775 3.96474Z" stroke="white" stroke-opacity="0.9" stroke-width="2" stroke-linecap="round" stroke-linejoin="round"/>
</g>
<defs>
<clipPath id="clip0_252_2699">
<rect width="21" height="21" fill="white"/>
</clipPath>
</defs>
</svg>
